<?xml version="1.0" encoding="utf-8"?>
<!-- Generator: Adobe Illustrator 25.0.0, SVG Export Plug-In . SVG Version: 6.00 Build 0)  -->
<svg version="1.1"
	 id="svg8" sodipodi:docname="drawing.svg" xmlns:cc="http://creativecommons.org/ns#" xmlns:dc="http://purl.org/dc/elements/1.1/" xmlns:inkscape="http://www.inkscape.org/namespaces/inkscape" xmlns:rdf="http://www.w3.org/1999/02/22-rdf-syntax-ns#" xmlns:sodipodi="http://sodipodi.sourceforge.net/DTD/sodipodi-0.dtd" xmlns:svg="http://www.w3.org/2000/svg"
	 xmlns="http://www.w3.org/2000/svg" xmlns:xlink="http://www.w3.org/1999/xlink" x="0px" y="0px" viewBox="0 0 500 500"
	 style="enable-background:new 0 0 500 500;" xml:space="preserve">
<style type="text/css">
	.st0{fill:#B9B9BD;}
	.st1{fill:#EAEAF0;}
	.st2{fill:#3A484A;}
	.st3{fill:#EFEDEE;}
	.st4{fill:#FFE600;}
	.st5{fill:#D4D2D3;}
	.st6{fill:#BAB8B9;}
	.st7{fill:#7E4BB2;}
	.st8{fill:#A260E5;}
</style>
<g>
	
		<sodipodi:namedview  bordercolor="#666666" borderopacity="1.0" id="base" inkscape:current-layer="layer1" inkscape:cx="59.299692" inkscape:cy="271.81859" inkscape:document-rotation="0" inkscape:document-units="mm" inkscape:pageopacity="0.0" inkscape:pageshadow="2" inkscape:window-height="1024" inkscape:window-maximized="1" inkscape:window-width="1920" inkscape:window-x="0" inkscape:window-y="28" inkscape:zoom="0.49497475" pagecolor="#ffffff" showgrid="false">
		<inkscape:grid  id="grid899" type="xygrid"></inkscape:grid>
	</sodipodi:namedview>
	<g id="g521_1_" transform="matrix(0.7600804,0,0,0.74613776,-178.71679,61.935915)">
		<path id="path511_1_" class="st0" d="M538.8,264.2c-20.4,31.8-56.2,13.3-104,0v114c-0.3,37.7,13.5,74.2,38.6,102.4
			c44.9,51.5,123,56.9,174.4,12c4.3-3.7,8.3-7.7,12-12c25.2-28.1,38.9-64.6,38.6-102.4V250C656.8,254.8,559.2,296,538.8,264.2z"/>
		<path id="path513_1_" class="st1" d="M710.8,278.5v98.3c0,106.1-70.2,146.2-157.8,190.9c-10.9-26.9-50.3-51.2-71.6-64.3
			c-40.4-24.7-58.9-58.3-58.9-126.7v-98.3l33.4,3.2c0,22.6-6.8,90.6,19.9,122.8c15.3,18.3,46.2,31.7,90.8,32.6
			c44.6-0.9,75.5-14.2,90.8-32.6c26.8-32.2,19.9-100.2,19.9-122.8L710.8,278.5z"/>
	</g>
	<g>
		<path class="st2" d="M185,327.4c-2.5,0-4.4-2-4.4-4.4v-13c0-2.5,2-4.4,4.4-4.4s4.4,2,4.4,4.4v13
			C189.4,325.4,187.4,327.4,185,327.4z"/>
		<path class="st2" d="M319,327.4c-2.5,0-4.4-2-4.4-4.4v-13c0-2.5,2-4.4,4.4-4.4s4.4,2,4.4,4.4v13
			C323.5,325.4,321.5,327.4,319,327.4z"/>
	</g>
	<g>
		<path class="st3" d="M229.5,330.8h-8.1c-7.1,0-12.9,5.8-12.9,12.9c0,3.6,1.4,6.8,3.8,9.1c2.3,2.3,5.6,3.8,9.1,3.8h8.1l11.2-12.9
			L229.5,330.8z"/>
		<polygon class="st3" points="274.5,330.8 252,330.8 240.8,343.7 252,356.6 274.5,356.6 285,343.7 		"/>
	</g>
	<g>
		<path class="st4" d="M295.4,343.7c0,7.1-5.8,12.9-12.9,12.9h-8.1v-25.8h8.1c3.6,0,6.8,1.4,9.1,3.8
			C294,336.9,295.4,340.1,295.4,343.7z"/>
		<rect x="229.5" y="330.8" class="st4" width="22.5" height="25.8"/>
	</g>
	<g>
		<path class="st5" d="M143.8,290.9c-2.5,0-4.4-2-4.4-4.4v-81.1c0-2.5,2-4.4,4.4-4.4c2.5,0,4.4,2,4.4,4.4v81.1
			C148.2,288.9,146.2,290.9,143.8,290.9z"/>
		<path class="st6" d="M143.8,200.9c-2.5,0-4.4,2-4.4,4.4v25.4c1.4,0.3,2.9,0.4,4.4,0.4c1.5,0,3-0.1,4.4-0.4v-25.4
			C148.2,202.9,146.2,200.9,143.8,200.9z"/>
		<path class="st2" d="M143.8,180.9c-4.9,0-8.8,3.9-8.8,8.8v17.9c0,4.9,3.9,8.8,8.8,8.8s8.8-3.9,8.8-8.8v-17.9
			C152.6,184.8,148.6,180.9,143.8,180.9z"/>
		<path class="st2" d="M162.4,266.2c-19,0-34.5,15.4-34.5,34.5l0,0c0,19,15.4,34.5,34.5,34.5h8.1v-68.9H162.4z"/>
	</g>
	<g>
		<path class="st5" d="M360.2,290.9c-2.5,0-4.4-2-4.4-4.4v-81.1c0-2.5,2-4.4,4.4-4.4s4.4,2,4.4,4.4v81.1
			C364.6,288.9,362.6,290.9,360.2,290.9z"/>
		<path class="st6" d="M360.2,200.9c2.5,0,4.4,2,4.4,4.4v25.4c-1.4,0.3-2.9,0.4-4.4,0.4c-1.5,0-3-0.1-4.4-0.4v-25.4
			C355.7,202.9,357.7,200.9,360.2,200.9z"/>
		<path class="st2" d="M360.2,180.9c4.9,0,8.8,3.9,8.8,8.8v17.9c0,4.9-3.9,8.8-8.8,8.8s-8.8-3.9-8.8-8.8v-17.9
			C351.4,184.8,355.3,180.9,360.2,180.9z"/>
		<path class="st2" d="M341.5,266.2c19,0,34.5,15.4,34.5,34.5l0,0c0,19-15.4,34.5-34.5,34.5h-8.1v-68.9H341.5z"/>
	</g>
	<g>
		<path class="st7" d="M412.9,260c0,14.6-72,26.5-160.9,26.5S91.1,274.7,91.1,260c0-7.8,20.5-14.8,53.2-19.7l-2.5,7.6
			c36.5,5.5,73.3,8.1,110.2,7.8c36.7,0.3,73.3-2.3,109.6-7.7l-2.6-7.8C392.1,245.1,412.9,252.2,412.9,260z"/>
	</g>
	<path id="path517_1_" class="st8" d="M347.2,204.4l14.4,44c-36.3,5.4-72.9,8-109.6,7.7c-36.9,0.3-73.7-2.3-110.2-7.8l14.4-43.8
		l42.7-130.6l88.3-58.1l91.8,19.5l-49,14.8l-25.2,23.7L347.2,204.4z"/>
	<path id="path519_1_" class="st7" d="M179.9,219.1c-4,0-7.3-3.2-7.3-7.2c0-0.7,0.1-1.5,0.3-2.2l16.5-50.6c1.2-3.8,5.3-5.9,9.1-4.7
		c3.8,1.2,6,5.2,4.8,9c0,0,0,0.1,0,0.1l-16.5,50.6C185.9,217.1,183.1,219.1,179.9,219.1L179.9,219.1z"/>
</g>
</svg>
