<?xml version="1.0" encoding="utf-8"?>
<!-- Generator: Adobe Illustrator 25.0.0, SVG Export Plug-In . SVG Version: 6.00 Build 0)  -->
<svg version="1.1"
	 id="svg8" sodipodi:docname="drawing.svg" xmlns:cc="http://creativecommons.org/ns#" xmlns:dc="http://purl.org/dc/elements/1.1/" xmlns:inkscape="http://www.inkscape.org/namespaces/inkscape" xmlns:rdf="http://www.w3.org/1999/02/22-rdf-syntax-ns#" xmlns:sodipodi="http://sodipodi.sourceforge.net/DTD/sodipodi-0.dtd" xmlns:svg="http://www.w3.org/2000/svg"
	 xmlns="http://www.w3.org/2000/svg" xmlns:xlink="http://www.w3.org/1999/xlink" x="0px" y="0px" viewBox="0 0 500 500"
	 style="enable-background:new 0 0 500 500;" xml:space="preserve">
<style type="text/css">
	.st0{fill-rule:evenodd;clip-rule:evenodd;fill:#ECF2F3;}
	.st1{fill-rule:evenodd;clip-rule:evenodd;fill:#BFDBFF;}
	.st2{fill-rule:evenodd;clip-rule:evenodd;fill:#80B6FF;}
	.st3{fill-rule:evenodd;clip-rule:evenodd;fill:#FFCD69;}
	.st4{fill-rule:evenodd;clip-rule:evenodd;fill:#FFE6B4;}
	.st5{fill:#7E4BB2;}
	.st6{fill:#A260E5;}
</style>
<sodipodi:namedview  bordercolor="#666666" borderopacity="1.0" id="base" inkscape:current-layer="layer1" inkscape:cx="59.299692" inkscape:cy="271.81859" inkscape:document-rotation="0" inkscape:document-units="mm" inkscape:pageopacity="0.0" inkscape:pageshadow="2" inkscape:window-height="1024" inkscape:window-maximized="1" inkscape:window-width="1920" inkscape:window-x="0" inkscape:window-y="28" inkscape:zoom="0.49497475" pagecolor="#ffffff" showgrid="false">
	<inkscape:grid  id="grid899" type="xygrid"></inkscape:grid>
</sodipodi:namedview>
<g>
	<g>
		<g>
			<g>
				<path class="st0" d="M268.4,404.6h37.7v33.6h-37.7V404.6z"/>
			</g>
			<g>
				<path class="st0" d="M193,404.6h37.7v33.6H193V404.6z"/>
			</g>
			<g>
				<path class="st0" d="M230.7,404.6h37.7v33.6h-37.7V404.6z"/>
			</g>
			<g>
				<path class="st1" d="M306.2,438.2v-33.6H193v33.6H94c0-80.3,60.7-146.3,138.7-154.7v15c0,3.9,3.2,7.1,7.1,7.1h19.4
					c3.9,0,7.1-3.2,7.1-7.1v-15c78,8.4,138.7,74.5,138.7,154.7H306.2z"/>
			</g>
			<g>
				<path class="st2" d="M239.8,305.6h19.4c3.9,0,7.1-3.2,7.1-7.1v-15v-10.4c0-3.9-3.2-7.1-7.1-7.1h-19.4c-3.9,0-7.1,3.2-7.1,7.1
					v10.4v15C232.7,302.4,235.9,305.6,239.8,305.6z"/>
			</g>
			<g>
				<path d="M370.7,328.8l-11.3-11.3c-23.8-21.7-53.5-35.9-85.3-40.7v-3.6c0-8.2-6.7-14.8-14.8-14.8h-19.4
					c-8.2,0-14.8,6.6-14.8,14.8v3.6c-31.9,4.8-61.5,19-85.3,40.7l-10.9,10.9c-0.1,0.2-0.3,0.3-0.4,0.5
					c-27.1,30-42.1,68.9-42.1,109.5c0,4.2,3.4,7.7,7.7,7.7h311.2c4.2,0,7.7-3.4,7.7-7.7C412.8,397.7,397.9,358.8,370.7,328.8z
					 M313.8,430.5v-25.9c0-4.2-3.4-7.7-7.7-7.7H193c-4.2,0-7.7,3.4-7.7,7.7v25.9h-83.4c3.5-69.5,54.8-126.9,123.1-138.2v6.2
					c0,8.2,6.6,14.8,14.8,14.8h19.4c8.2,0,14.8-6.7,14.8-14.8v-6.2c68.4,11.4,119.6,68.8,123.2,138.2H313.8z M240.4,273.6h18.4v24.3
					h-18.4V273.6z M223,430.5h-22.3v-18.2H223V430.5z M260.7,430.5h-22.4v-18.2h22.4V430.5z M298.5,430.5h-22.4v-18.2h22.4V430.5z"
					/>
				<path d="M196.2,338.7c-13.9,0-25.2,11.3-25.2,25.1c0,13.9,11.3,25.2,25.2,25.2c13.9,0,25.1-11.3,25.1-25.2
					C221.3,350,210.1,338.7,196.2,338.7z M196.2,373.6c-5.4,0-9.8-4.4-9.8-9.8c0-5.4,4.4-9.8,9.8-9.8c5.4,0,9.8,4.4,9.8,9.8
					C206,369.2,201.6,373.6,196.2,373.6z"/>
				<path d="M302.9,338.7c-13.9,0-25.2,11.3-25.2,25.1c0,13.9,11.3,25.2,25.2,25.2c13.9,0,25.1-11.3,25.1-25.2
					C328.1,350,316.8,338.7,302.9,338.7z M302.9,373.6c-5.4,0-9.8-4.4-9.8-9.8c0-5.4,4.4-9.8,9.8-9.8c5.4,0,9.8,4.4,9.8,9.8
					C312.7,369.2,308.3,373.6,302.9,373.6z"/>
			</g>
			<g>
				<path class="st3" d="M206,363.8c0,5.4-4.4,9.8-9.8,9.8c-5.4,0-9.8-4.4-9.8-9.8c0-5.4,4.4-9.8,9.8-9.8
					C201.6,354,206,358.4,206,363.8z"/>
			</g>
			<g>
				<path class="st3" d="M312.7,363.8c0,5.4-4.4,9.8-9.8,9.8c-5.4,0-9.8-4.4-9.8-9.8c0-5.4,4.4-9.8,9.8-9.8
					C308.3,354,312.7,358.4,312.7,363.8z"/>
			</g>
			<path d="M30.3,289.5c-0.1,0.1-0.1,0.1-0.1,0C30.1,289.4,30.1,289.4,30.3,289.5z"/>
		</g>
		<g>
			<g>
				<path class="st4" d="M40.3,418.3c11.3,0,20.5-9.2,20.5-20.5c0-11.3-9.2-20.5-20.5-20.5c-11.3,0-20.5,9.2-20.5,20.5
					C19.8,409.1,29,418.3,40.3,418.3z"/>
			</g>
			<g>
				<path d="M67.4,390.1c-3.4-11.8-14.3-20.5-27.1-20.5c-15.5,0-28.1,12.7-28.1,28.2c0,15.5,12.7,28.2,28.2,28.1
					c7.8,0,14.8-3.2,19.9-8.3c3.3-3.4,5.8-7.6,7.2-12.2l32.9,0l0-15.4L67.4,390.1z M53.1,397.8c0,7.1-5.7,12.8-12.8,12.8
					c-7.1,0-12.8-5.7-12.8-12.8c0-7,5.7-12.8,12.8-12.8C47.3,385,53.1,390.7,53.1,397.8z"/>
			</g>
		</g>
		<g>
			<g>
				<path class="st4" d="M459.7,377.3c-11.3,0-20.5,9.2-20.5,20.5c0,11.3,9.2,20.5,20.5,20.5c11.3,0,20.5-9.2,20.5-20.5
					S471,377.3,459.7,377.3z"/>
			</g>
			<g>
				<path d="M432.6,405.5c3.4,11.8,14.3,20.5,27.1,20.5c15.5,0,28.1-12.7,28.1-28.2c0-15.5-12.7-28.2-28.2-28.1
					c-7.8,0-14.8,3.2-19.9,8.3c-3.3,3.4-5.8,7.6-7.2,12.2l-32.9,0l0,15.4L432.6,405.5z M446.9,397.8c0-7.1,5.7-12.8,12.8-12.8
					c7.1,0,12.8,5.7,12.8,12.8c0,7-5.7,12.8-12.8,12.8C452.7,410.6,446.9,404.9,446.9,397.8z"/>
			</g>
		</g>
	</g>
	<g id="g572_1_" transform="matrix(0.7600804,0,0,0.74613776,0.05209545,89.397983)">
		<g id="g562_1_">
			<ellipse id="ellipse558_1_" class="st5" cx="328.3" cy="289.1" rx="211.1" ry="35.4"/>
			<path id="path560_1_" class="st6" d="M453.1,214.3l18.9,58.8c-47.6,7.2-95.7,10.7-143.8,10.2c-48.4,0.4-96.8-3-144.6-10.4
				l18.8-58.5l56-174.6l115.8-77.6l120.5,26L430.4,8.1l-33.1,31.7L453.1,214.3z"/>
		</g>
		<g id="g570_1_">
			<path id="path564_1_" d="M476,254.2l-12.1-37.6c-1.6-5-7-7.8-12-6.2h0c-5,1.6-7.8,7-6.2,12l12.5,38.8l1.3,4.2
				c-43.5,5.9-87.4,8.7-131.3,8.4c-44.2,0.3-88.3-2.5-132.1-8.5l1.3-3.9l69.1-215.4l109.7-73.5L457-10.1L427.5-1
				c-1.4,0.4-2.7,1.2-3.8,2.2L390.6,33c-2.6,2.5-3.6,6.3-2.5,9.8L420.2,143c1.7,4.9,7,7.6,12,6c0.1,0,0.1,0,0.2-0.1
				c4.8-1.7,7.5-6.8,6-11.8l-30.3-94.5l27.2-26l62.2-19.2c5-1.6,7.9-6.9,6.3-12c-1-3.3-3.7-5.8-7.1-6.5l-120.4-26
				c-2.5-0.6-5.2-0.1-7.3,1.4L253.1,31.9c-1.8,1.2-3.1,3-3.8,5l-69.7,217.4c-63.7,10.4-72,24-72,34.8c0,16.9,29.7,27.5,67.4,34.1
				c0,0,13.5,2.2,19.1,2.9c0.3,0,0.6,0.1,0.9,0.1c0.2,0,0.5,0.1,0.7,0.1c7.6,0.9,28.4,3.2,34.3,3.7c0,0,0.1,0,0.1,0
				c45.4,3.8,88.3,4.1,98.1,4.1c10.1,0,54.9-0.3,101.6-4.4c0,0,12.7-1.2,19.1-1.9c0.8-0.1,1.6-0.2,2.4-0.3c2.8-0.3,5.6-0.7,7.7-0.9
				c0.2,0,0.3,0,0.4-0.1c0.3,0,0.5-0.1,0.8-0.1c1.4-0.2,2.2-0.3,2.2-0.3s12.4-1.7,19.1-3c37.7-6.6,67.4-17.1,67.4-34.1
				C549,278.2,540.5,264.5,476,254.2z M217.8,309.7h-0.4c-11.3-1.2-21.6-2.5-30.8-4c-0.2-0.1-0.5-0.1-0.7-0.1
				c-33.3-5.2-52.6-11.7-58.2-16.4c3.3-2.5,14.1-8.6,46.6-14.6c0.6,4,3.8,7.1,7.8,7.7c48.4,7.4,97.3,11,146.2,10.6
				c48.7,0.4,97.3-3.1,145.4-10.4c2.7-0.5,5.1-2.1,6.6-4.5c0.7-1.1,1.1-2.3,1.3-3.6c33.1,5.9,44,12.1,47.4,14.7
				c-5.6,4.7-25,11.2-58.2,16.4c-0.2,0-0.5,0.1-0.7,0.1c-9.2,1.4-19.5,2.8-30.8,4c-0.1,0-0.2,0-0.4,0c-0.7,0-1.3,0.1-1.9,0.3
				c-36.1,3.5-72.3,5.2-108.5,5c-36.2,0.2-72.4-1.5-108.5-5C219.1,309.8,218.5,309.7,217.8,309.7z"/>
			<path id="path566_1_" d="M436.5,162.4c-5,1.6-7.8,7-6.2,12l5.2,16.2c1.6,5,7,7.8,12,6.2c5-1.6,7.8-7,6.2-12l-5.2-16.2
				C446.9,163.6,441.5,160.8,436.5,162.4C436.5,162.4,436.5,162.4,436.5,162.4z"/>
			<path id="path568_1_" d="M246.2,153.9l-21.7,67.6c-1.7,5,0.9,10.4,5.9,12.1c5,1.7,10.4-0.9,12.1-5.9c0-0.1,0.1-0.2,0.1-0.4
				l21.7-67.6c1.6-5-1.1-10.4-6.1-12.1c-5-1.6-10.4,1.1-12.1,6.1C246.3,153.8,246.3,153.9,246.2,153.9z"/>
		</g>
	</g>
</g>
</svg>
